<svg xmlns="http://www.w3.org/2000/svg" width="22" height="25" viewBox="0 0 22 25">
  <g id="Group_21" data-name="Group 21" transform="translate(-976 -318)">
    <path id="Rectangle_33" data-name="Rectangle 33" class="cls-1" d="M0,0H18a0,0,0,0,1,0,0V15a5,5,0,0,1-5,5H5a5,5,0,0,1-5-5V0A0,0,0,0,1,0,0Z" transform="translate(978 323)"/>
    <path id="Path_8" data-name="Path 8" class="cls-1" d="M1,0H13a1,1,0,0,1,1,1V3.349H0V1A1,1,0,0,1,1,0Z" transform="translate(980 318)"/>
    <rect id="Rectangle_35" data-name="Rectangle 35" class="cls-1" width="22" height="2" transform="translate(976 320)"/>
  </g>
</svg>
