<?xml version="1.0" encoding="utf-8"?>
<!-- Generator: Adobe Illustrator 23.0.3, SVG Export Plug-In . SVG Version: 6.00 Build 0)  -->
<svg version="1.1" id="history" xmlns="http://www.w3.org/2000/svg" xmlns:xlink="http://www.w3.org/1999/xlink" x="0px" y="0px"
	 viewBox="0 0 30.3 26" style="enable-background:new 0 0 30.3 26;" xml:space="preserve">
<style type="text/css">
	.st0{fill:#ABABAB;}
</style>
<g id="Group_2" transform="translate(0 0)">
	<g id="Group_1" transform="translate(0 0)">
		<path id="Path_5"  d="M16,6.6v8.5l5.2,4.2c0.5,0.4,1.2,0.3,1.6-0.1l0,0c0.5-0.5,0.4-1.3-0.1-1.7l-4.6-3.7v-7
			c0-0.6-0.5-1.1-1.1-1.1h0C16.5,5.5,16,6,16,6.6z"/>
		<path id="Path_6"  d="M17.3,0c-7.2,0-13,5.8-13,13c0,0,0,0,0,0H0l5.6,5.6l0.1,0.2l5.8-5.8H7.2
			c0-5.6,4.5-10.1,10.1-10.2c5.6,0,10.1,4.5,10.2,10.1c0,5.6-4.5,10.1-10.1,10.2c-2.7,0-5.3-1.1-7.2-3l-2,2c5.1,5.1,13.3,5.1,18.4,0
			s5.1-13.3,0-18.4C24.1,1.4,20.8,0,17.3,0z"/>
	</g>
</g>
</svg>
