<svg width="25" height="25" viewBox="0 0 32 32">
  <g id="Group_1" data-name="Group 1" transform="translate(-43 -419)">
    <path id="Subtraction_1" data-name="Subtraction 1" class="cls-1" d="M58.561-2449.148H46.586v-12a11.909,11.909,0,0,1,8.468,3.52,11.926,11.926,0,0,1,3.507,8.48Z" transform="translate(14.439 2882.149)"/>
    <path id="Subtraction_2" data-name="Subtraction 2" class="cls-1" d="M16-2427.149a15.9,15.9,0,0,1-11.314-4.687A15.9,15.9,0,0,1,0-2443.149a15.9,15.9,0,0,1,4.686-11.314A15.9,15.9,0,0,1,16-2459.149h.024v16H32a15.9,15.9,0,0,1-4.687,11.314A15.9,15.9,0,0,1,16-2427.149Z" transform="translate(43 2878.149)"/>
  </g>
</svg>
